<?xml version="1.0" encoding="utf-8"?>
<!-- Generator: Adobe Illustrator 24.0.1, SVG Export Plug-In . SVG Version: 6.00 Build 0)  -->
<svg version="1.1" id="Layer_1" xmlns="http://www.w3.org/2000/svg" xmlns:xlink="http://www.w3.org/1999/xlink" x="0px" y="0px"
	 viewBox="0 0 300 300" style="enable-background:new 0 0 300 300;" xml:space="preserve">
<style type="text/css">
	.st0{display:none;fill:#EC1C24;stroke:#000000;stroke-miterlimit:10;}
	.st1{fill:none;stroke:#FFFFFF;stroke-width:5.6693;stroke-linecap:round;stroke-linejoin:round;}
	.st2{fill:none;stroke:#FFFFFF;stroke-width:5.6693;stroke-linejoin:round;stroke-miterlimit:10;}
	.st3{fill:#FFFFFF;}
</style>
<rect x="-1285.4" y="-5.4" class="st0" width="1592.9" height="1269.3"/>
<g>
	<path class="st1" d="M228.6,126.6c-0.1-4.3-0.5-8.6-1.3-13c-7.7-41.8-47.9-69.5-89.7-61.8c-23.5,4.3-42.5,18.9-53.3,38.3
		c-31.1,16.3-49.4,51.5-42.7,87.9c8.2,44.7,51.2,74.3,95.9,66.1c1.4-0.3,2.7-0.5,4.1-0.9c11.6,3.7,24.3,4.7,37.2,2.3
		c41.8-7.7,69.5-47.9,61.8-89.7C238.6,145,234.4,135.1,228.6,126.6z"/>
	<path class="st2" d="M43.3,144.1l63.3,98C106.6,242.1,144.3,146.7,43.3,144.1z"/>
	<path class="st3" d="M42.1,146.1l12.6,16.7L91.3,217l12.5,21.2l0.3,4c0,0-17.5,0.5-44.2-23.9S42.1,146.1,42.1,146.1z"/>
</g>
</svg>
