<?xml version="1.0" encoding="utf-8"?>
<!-- Generator: Adobe Illustrator 24.0.1, SVG Export Plug-In . SVG Version: 6.00 Build 0)  -->
<svg version="1.1" id="Layer_1" xmlns="http://www.w3.org/2000/svg" xmlns:xlink="http://www.w3.org/1999/xlink" x="0px" y="0px"
	 viewBox="0 0 300 300" style="enable-background:new 0 0 300 300;" xml:space="preserve">
<style type="text/css">
	.st0{display:none;fill:#EC1C24;stroke:#000000;stroke-miterlimit:10;}
	.st1{fill:none;stroke:#FFFFFF;stroke-width:5.6693;stroke-linecap:round;stroke-linejoin:round;}
	.st2{fill:#FFFFFF;}
	.st3{fill:none;stroke:#FFFFFF;stroke-width:5.6693;stroke-linejoin:round;}
</style>
<rect x="-325.4" y="-5.4" class="st0" width="1592.9" height="1269.3"/>
<rect x="69.9" y="8.4" class="st1" width="139.1" height="268"/>
<path class="st2" d="M208.7,276.6l0.5-253h16.6c2.4,0,4.3,1.9,4.3,4.3v259.5c0,2.4-1.9,4.3-4.3,4.3H95.3c-2.4,0-4.3-1.9-4.3-4.3
	v-10.8L208.7,276.6z"/>
<line class="st3" x1="86.3" y1="120.2" x2="154" y2="120.2"/>
<line class="st3" x1="171.9" y1="120.2" x2="189.4" y2="120.2"/>
<line class="st3" x1="86.7" y1="143.1" x2="188.7" y2="143.1"/>
<line class="st3" x1="86.3" y1="188.8" x2="154" y2="188.8"/>
<line class="st3" x1="171.9" y1="188.8" x2="189.4" y2="188.8"/>
<line class="st3" x1="86.7" y1="211.7" x2="188.7" y2="211.7"/>
<rect x="89.6" y="30.3" class="st1" width="56.8" height="64.2"/>
<line class="st1" x1="90.1" y1="92.8" x2="146.4" y2="30.3"/>
<line class="st1" x1="89.6" y1="30.3" x2="146.4" y2="94.5"/>
</svg>
