<?xml version="1.0" encoding="utf-8"?>
<!-- Generator: Adobe Illustrator 24.0.1, SVG Export Plug-In . SVG Version: 6.00 Build 0)  -->
<svg version="1.1" id="Layer_1" xmlns="http://www.w3.org/2000/svg" xmlns:xlink="http://www.w3.org/1999/xlink" x="0px" y="0px"
	 viewBox="0 0 300 300" style="enable-background:new 0 0 300 300;" xml:space="preserve">
<style type="text/css">
	.st0{display:none;fill:#EC1C24;stroke:#000000;stroke-miterlimit:10;}
	.st1{fill:#FFFFFF;}
	.st2{fill:none;stroke:#FFFFFF;stroke-width:5.6693;stroke-linecap:round;stroke-linejoin:round;}
	.st3{fill:none;stroke:#FFFFFF;stroke-width:5.6693;stroke-linejoin:round;}
</style>
<rect x="-965.4" y="-5.4" class="st0" width="1592.9" height="1269.3"/>
<path class="st1" d="M51,219.2c0.7,2,1.6,3.9,2.6,5.6c5.4,17.7,51.6,31.5,107.7,31.5c55,0,100.4-13.3,107.3-30.4
	c3.2-4.8,5-10.6,5-16.7v-33.6c0-11.8-6.7-22.1-16.6-27.1v55.9l-16.5,17.2l-49.4,14.3l-72.4,0.5l-51.7-9.3L51,219.2z"/>
<path class="st2" d="M132.8,113.4c0,0,0-16,0-37.2s10.6-36,41-31.2"/>
<path class="st2" d="M157.6,113.4c0,0,0-20,0-38.4s5.5-30.2,14.7-30.2"/>
<path class="st2" d="M171,44.7c9,0,18.8,6.2,18.8,22.8h-31.6"/>
<path class="st2" d="M257.4,157.5c0-16.8-13.6-30.4-30.4-30.4h-33.6c-2.1,0-4.2,0.2-6.1,0.6c-5.4-8.3-14.8-13.8-25.5-13.8h-33.6
	c-10.6,0-20,5.5-25.4,13.7c-1.8-0.3-3.6-0.5-5.5-0.5H63.5c-16.8,0-30.4,13.6-30.4,30.4v33.6c0,5.7,0.9,12.5,2.1,15.9
	c7.7,18.6,53.8,31.3,110,31.3c55,0,100-10.9,109.8-28.9c2.2-5.2,2.5-12,2.5-18.2V157.5z"/>
<polygon class="st1" points="159,67.6 187,67.6 191.1,64.4 186.6,53.6 177.4,46.4 167,46.4 162.2,53.2 159.4,63.6 "/>
<line class="st3" x1="74" y1="159.3" x2="119.6" y2="159.3"/>
<line class="st3" x1="74" y1="186" x2="146.3" y2="186"/>
<line class="st3" x1="142.3" y1="159.3" x2="221.5" y2="159.3"/>
<line class="st3" x1="172.1" y1="186.6" x2="221.5" y2="186.6"/>
</svg>
