<?xml version="1.0" encoding="utf-8"?>
<!-- Generator: Adobe Illustrator 24.0.1, SVG Export Plug-In . SVG Version: 6.00 Build 0)  -->
<svg version="1.1" id="Layer_1" xmlns="http://www.w3.org/2000/svg" xmlns:xlink="http://www.w3.org/1999/xlink" x="0px" y="0px"
	 viewBox="0 0 300 300" style="enable-background:new 0 0 300 300;" xml:space="preserve">
<style type="text/css">
	.st0{display:none;fill:#EC1C24;stroke:#000000;stroke-miterlimit:10;}
	.st1{fill:none;stroke:#FFFFFF;stroke-width:5.6693;stroke-linecap:round;stroke-linejoin:round;}
	.st2{fill:none;stroke:#FFFFFF;stroke-width:5.6693;stroke-linecap:square;stroke-linejoin:round;}
</style>
<rect x="-645.4" y="-325.4" class="st0" width="1592.9" height="1269.3"/>
<rect x="73.7" y="70.9" transform="matrix(0.1178 -0.993 0.993 0.1178 12.3668 313.6776)" class="st1" width="218" height="157.9"/>
<polyline class="st1" points="81.4,243.5 70.9,243 76.1,31.9 106.8,32.6 "/>
<polyline class="st1" points="67.9,251.3 56,252.3 29.8,45.7 65.1,41.4 "/>
<rect x="160.7" y="35.5" transform="matrix(0.1178 -0.993 0.993 0.1178 75.1154 269.9843)" class="st1" width="57.5" height="114.5"/>
<rect x="109.1" y="191.8" transform="matrix(0.1178 -0.993 0.993 0.1178 -88.7963 319.2026)" class="st1" width="52.3" height="35.6"/>
<line class="st2" x1="241" y1="151.6" x2="127.3" y2="138.1"/>
<line class="st2" x1="239.1" y1="175.8" x2="125.3" y2="162.4"/>
<line class="st2" x1="231.7" y1="210.2" x2="169.2" y2="202.7"/>
<line class="st2" x1="229.3" y1="229.8" x2="166.9" y2="222.3"/>
<line class="st1" x1="247.3" y1="72.5" x2="130.1" y2="113.1"/>
<line class="st1" x1="137.6" y1="59.1" x2="242.4" y2="126.6"/>
<line class="st1" x1="117.1" y1="231.2" x2="153.5" y2="187"/>
<line class="st1" x1="121.5" y1="183.6" x2="149.8" y2="237.6"/>
</svg>
