<?xml version="1.0" encoding="utf-8"?>
<!-- Generator: Adobe Illustrator 24.0.1, SVG Export Plug-In . SVG Version: 6.00 Build 0)  -->
<svg version="1.1" id="Layer_1" xmlns="http://www.w3.org/2000/svg" xmlns:xlink="http://www.w3.org/1999/xlink" x="0px" y="0px"
	 viewBox="0 0 300 300" style="enable-background:new 0 0 300 300;" xml:space="preserve">
<style type="text/css">
	.st0{display:none;fill:#EC1C24;stroke:#000000;stroke-miterlimit:10;}
	.st1{fill:none;stroke:#FFFFFF;stroke-width:5.6693;stroke-linecap:round;stroke-linejoin:round;}
	.st2{fill:none;stroke:#FFFFFF;stroke-width:5.6693;stroke-linecap:square;stroke-linejoin:round;}
	.st3{fill:#FFFFFF;}
	.st4{fill:none;stroke:#FFFFFF;stroke-width:5.6693;stroke-linecap:round;stroke-linejoin:round;stroke-dasharray:11.6726,11.6726;}
</style>
<rect x="-965.4" y="-325.4" class="st0" width="1592.9" height="1269.3"/>
<rect x="61.9" y="32" class="st1" width="167.8" height="236.1"/>
<line class="st2" x1="115.5" y1="184.8" x2="163.5" y2="184.8"/>
<line class="st2" x1="182.8" y1="184.8" x2="197" y2="184.8"/>
<line class="st2" x1="115.4" y1="207.7" x2="198.1" y2="207.7"/>
<g>
	<path class="st3" d="M156.4,116.5c12.5,0,22.7-10.1,22.7-22.7s-10.1-22.7-22.7-22.7c-12.5,0-22.7,10.1-22.7,22.7
		S143.9,116.5,156.4,116.5z M156.4,76.8c9.4,0,17,7.6,17,17s-7.6,17-17,17c-9.4,0-17-7.6-17-17S147,76.8,156.4,76.8z"/>
	<path class="st3" d="M146.5,93.8c0-5.5,4.4-9.9,9.9-9.9c0.8,0,1.4-0.6,1.4-1.4c0-0.8-0.6-1.4-1.4-1.4c-7,0-12.7,5.7-12.7,12.7
		c0,0.8,0.6,1.4,1.4,1.4S146.5,94.6,146.5,93.8z"/>
	<path class="st3" d="M125.2,150.5h62.3c4.7,0,8.5-3.8,8.5-8.5v-13.8c0-4.6-2.8-8.7-7-10.5c-2.4-1-4.7-2.2-6.9-3.6
		c-2.2-1.3-5-1-6.8,0.7c-10.8,9.7-27.1,9.7-37.9,0c-1.9-1.7-4.7-2-6.8-0.7c-2.2,1.4-4.5,2.6-6.9,3.6c-4.2,1.8-7,5.9-7,10.5V142
		C116.7,146.7,120.5,150.5,125.2,150.5z M122.4,128.2c0-2.3,1.4-4.3,3.5-5.2c2.7-1.1,5.3-2.4,7.8-3.9c12.9,11.8,32.6,11.8,45.5,0
		c2.5,1.5,5,2.9,7.7,4l0,0c2,0.9,3.4,2.9,3.4,5.1V142c0,1.6-1.3,2.8-2.8,2.8h-62.3c-1.6,0-2.8-1.3-2.8-2.8V128.2z"/>
</g>
<path class="st3" d="M231.2,48.8h0.6c7.2,0,13,5.8,13,13v196.1c0,7.3-5.9,13.2-13.2,13.2h-2.6"/>
<g>
	<g>
		<line class="st1" x1="88.8" y1="32.8" x2="88.8" y2="38.8"/>
		<line class="st4" x1="88.8" y1="50.4" x2="88.8" y2="254.7"/>
		<line class="st1" x1="88.8" y1="260.6" x2="88.8" y2="266.6"/>
	</g>
</g>
</svg>
