<?xml version="1.0" encoding="utf-8"?>
<!-- Generator: Adobe Illustrator 24.0.1, SVG Export Plug-In . SVG Version: 6.00 Build 0)  -->
<svg version="1.1" id="Layer_1" xmlns="http://www.w3.org/2000/svg" xmlns:xlink="http://www.w3.org/1999/xlink" x="0px" y="0px"
	 viewBox="0 0 300 300" style="enable-background:new 0 0 300 300;" xml:space="preserve">
<style type="text/css">
	.st0{display:none;fill:#EC1C24;stroke:#000000;stroke-miterlimit:10;}
	.st1{fill:none;stroke:#FFFFFF;stroke-width:5.6693;stroke-linecap:round;stroke-linejoin:round;}
	.st2{fill:#FFFFFF;}
	.st3{fill:none;stroke:#FFFFFF;stroke-width:5.6693;stroke-linecap:square;stroke-linejoin:round;}
</style>
<rect x="-645.4" y="-5.4" class="st0" width="1592.9" height="1269.3"/>
<rect x="39.1" y="8.7" class="st1" width="194.1" height="268"/>
<path class="st2" d="M233.1,276.2V23.3H250c3.3,0,5.9,1.9,5.9,4.3v259.5c0,2.4-2.7,4.3-5.9,4.3H67.7c-3.3,0-5.9-1.9-5.9-4.3v-9.8
	L233.1,276.2z"/>
<line class="st3" x1="88.9" y1="35.3" x2="183.4" y2="35.3"/>
<line class="st3" x1="123.9" y1="49.3" x2="148.3" y2="49.3"/>
<line class="st3" x1="65" y1="71.2" x2="207.3" y2="71.2"/>
<g>
	<line class="st3" x1="65" y1="189" x2="159.5" y2="189"/>
	<line class="st3" x1="181" y1="189" x2="205.4" y2="189"/>
</g>
<line class="st3" x1="65" y1="212" x2="207.3" y2="212"/>
<rect x="65.1" y="96.6" class="st1" width="142" height="64.2"/>
<line class="st1" x1="66.3" y1="158.7" x2="207.2" y2="96.6"/>
<line class="st1" x1="67.4" y1="97.1" x2="206.7" y2="158.7"/>
</svg>
