<?xml version="1.0" encoding="utf-8"?>
<!-- Generator: Adobe Illustrator 24.0.0, SVG Export Plug-In . SVG Version: 6.00 Build 0)  -->
<svg version="1.1" id="Layer_1" xmlns="http://www.w3.org/2000/svg" xmlns:xlink="http://www.w3.org/1999/xlink" x="0px" y="0px"
	 viewBox="0 0 473 174" style="enable-background:new 0 0 473 174;" xml:space="preserve">
<style type="text/css">
	.st0{fill-rule:evenodd;clip-rule:evenodd;fill:#D1D3D4;}
	.st1{fill-rule:evenodd;clip-rule:evenodd;fill:#ED1C24;}
	.st2{filter:url(#Adobe_OpacityMaskFilter);}
	.st3{clip-path:url(#SVGID_3_);}
	.st4{enable-background:new    ;}
	.st5{clip-path:url(#SVGID_5_);}
	.st6{clip-path:url(#SVGID_7_);}
	.st7{mask:url(#SVGID_1_);}
	.st8{clip-path:url(#SVGID_11_);fill-rule:evenodd;clip-rule:evenodd;fill:#FFFFFF;}
	.st9{fill:#6D6E71;}
</style>
<g>
	<path class="st0" d="M187.9,67.9c0.3,8.3-1,15.3-7.5,20.5c-12.1,9.6-24.6,19.6-37.4,29.9c-13.2,10.6-26.8,21.7-40.8,33.2
		c-13.7,11.2-32.9,10.4-41.4-1.1C52.5,139.2,45,129,38.2,119.7c-6.2-8.6-10.8-14.9-16.1-22.3c-2-2.8-3-8.4-2.9-14
		c0.2,3.2,2.4,5.5,2.9,6.1c5.3,7.4,9.9,13.7,16.1,22.3c6.8,9.4,14.3,19.5,22.5,30.7c8.5,11.6,27.7,12.3,41.4,1.1
		c14-11.4,27.6-22.5,40.8-33.2c12.8-10.3,25.3-20.3,37.4-29.9C184.1,77.7,187.7,73.3,187.9,67.9"/>
	<path d="M426.6,122.1h-6.2V67.8h6.2V122.1z M426.6,60.7c0,2-1.1,3-3.3,3c-1.9,0-2.9-1-2.9-3c0-2,1-3,2.9-3
		C425.5,57.8,426.6,58.7,426.6,60.7 M409.4,95.1c0-7.7-2.3-14.2-7-19.6c-4.7-5.4-10.3-8.1-17-8.1c-6.6,0-12.2,2.7-16.9,8.1
		c-4.7,5.4-7,11.9-7,19.6c0,7.6,2.3,14.1,7,19.6c4.7,5.4,10.3,8.1,16.9,8.1c6.6,0,12.3-2.7,17-8.1
		C407.1,109.2,409.4,102.7,409.4,95.1 M415.5,95.1c0,8-2.9,14.8-8.8,20.4s-13,8.5-21.3,8.5c-8.3,0-15.4-2.8-21.3-8.5
		c-5.9-5.7-8.8-12.5-8.8-20.4V39.6h6.2v38c5.7-7.6,13.6-11.4,23.9-11.4c8.4,0,15.5,2.8,21.4,8.4C412.6,80.2,415.5,87,415.5,95.1
		 M349.2,122.1h-6.1V39.6h6.1V122.1z M332.2,95.1c0-7.7-2.3-14.2-7-19.6c-4.7-5.4-10.3-8.1-17-8.1c-6.6,0-12.2,2.7-16.9,8.1
		c-4.7,5.4-7,11.9-7,19.6c0,7.6,2.3,14.1,7,19.6c4.7,5.4,10.3,8.1,16.9,8.1c6.6,0,12.3-2.7,17-8.1
		C329.9,109.2,332.2,102.7,332.2,95.1 M338.3,95.1c0,8-2.9,14.8-8.8,20.4c-5.9,5.7-13,8.5-21.3,8.5s-15.4-2.8-21.3-8.5
		c-5.9-5.7-8.8-12.5-8.8-20.4c0-8,2.9-14.9,8.8-20.5c5.9-5.6,13-8.4,21.3-8.4c8.4,0,15.5,2.8,21.4,8.4
		C335.4,80.2,338.3,87,338.3,95.1 M258,77.4c0-2.7-0.6-5.1-1.7-7.1c-1.1-2-2.5-3-4-3c-1.5,0-2.8,1-4,3c-1.1,2-1.7,4.3-1.7,7.1
		c0,2.7,0.6,5.1,1.7,7.1c1.1,2,2.4,3.1,4,3.1c1.5,0,2.8-1,4-3.1C257.4,82.5,258,80.2,258,77.4 M446.7,56.8h1.9
		c0.9,0,1.6-0.1,1.9-0.4c0.3-0.3,0.5-0.6,0.5-1.1c0-0.3-0.1-0.5-0.2-0.8c-0.2-0.2-0.4-0.4-0.7-0.5c-0.3-0.1-0.8-0.2-1.6-0.2h-1.8
		V56.8z M445.1,62.2v-9.5h3.4c1.2,0,2,0.1,2.5,0.3c0.5,0.2,0.9,0.5,1.2,0.9c0.3,0.4,0.5,0.9,0.5,1.4c0,0.7-0.3,1.3-0.8,1.8
		c-0.5,0.5-1.2,0.8-2.1,0.9c0.3,0.1,0.6,0.3,0.8,0.5c0.4,0.4,0.9,1,1.5,1.9l1.2,1.9h-2l-0.9-1.5c-0.7-1.2-1.2-1.9-1.7-2.2
		c-0.3-0.2-0.7-0.3-1.3-0.3h-0.9v4H445.1z M449.1,49.9c-1.3,0-2.6,0.3-3.8,1c-1.2,0.6-2.2,1.5-2.9,2.7c-0.7,1.2-1,2.4-1,3.7
		c0,1.3,0.3,2.5,1,3.7c0.7,1.2,1.6,2.1,2.8,2.7c1.2,0.6,2.5,1,3.8,1c1.3,0,2.6-0.3,3.8-1c1.2-0.7,2.2-1.6,2.8-2.7
		c0.7-1.2,1-2.4,1-3.7c0-1.3-0.3-2.5-1-3.7c-0.7-1.2-1.6-2.1-2.9-2.7C451.7,50.2,450.4,49.9,449.1,49.9 M449.1,48.4
		c1.5,0,3.1,0.4,4.5,1.1c1.5,0.8,2.6,1.8,3.4,3.3c0.8,1.4,1.2,2.9,1.2,4.4c0,1.5-0.4,3-1.2,4.4c-0.8,1.4-1.9,2.5-3.4,3.3
		c-1.5,0.8-3,1.2-4.6,1.2s-3.1-0.4-4.6-1.2c-1.5-0.8-2.6-1.9-3.4-3.3c-0.8-1.4-1.2-2.9-1.2-4.4c0-1.5,0.4-3,1.2-4.4
		c0.8-1.4,2-2.5,3.4-3.3C446.1,48.8,447.6,48.4,449.1,48.4 M298.9,122.1c0,9.2-3.4,17.1-10.2,23.6c-6.8,6.5-15,9.7-24.6,9.7
		c-9.5,0-17.7-3.2-24.5-9.7c-6.8-6.5-10.2-14.3-10.2-23.6c0-4.7,0.9-9.1,2.8-13.2l1.1,0.4c-1.8,4.2-2.7,8.4-2.7,12.8
		c0,8.9,3.3,16.5,9.8,22.7c6.6,6.3,14.4,9.4,23.5,9.4c7.9,0,14.7-3.1,20.2-9.4c5.6-6.3,8.3-13.9,8.3-22.7c0-8.9-2.8-16.5-8.3-22.7
		c-5.6-6.3-12.3-9.4-20.2-9.4c-7.4,0-14.3,2.4-20.8,7.1c-2.8,2.1-5.6,3.1-8.2,3c-4-0.1-5.9-1.8-5.9-5.2c0-2.6,1.6-4.8,4.9-6.5
		c2.8-1.5,5.8-2.3,8.8-2.3c0.8,0,1.4,0,1.8,0.1c-2.8-2.3-4.2-5.2-4.2-8.7c0-3.1,1.2-5.7,3.5-7.9c2.3-2.2,5.1-3.3,8.4-3.3
		c5.6,0,9.2,2.5,11,7.5c1.6-0.2,2.9-1.3,4-3.3c0.9-1.7,1.3-3.4,1.1-5l5.4,2.7c-0.4,1.9-1.9,3.5-4.3,4.9c-1.9,1.1-3.7,1.7-5.5,1.8
		v2.7c0,3.2-1.2,5.9-3.5,8.1c-2.3,2.2-5.1,3.3-8.3,3.3c-2.1,0-3.9-0.5-5.5-1.5c-1.1-0.2-2.2-0.3-3.1-0.3c-2.4,0-4.4,0.5-6.2,1.6
		c-1.8,1.1-2.7,2.6-2.7,4.5c0,2.7,1.4,4.1,4.2,4.1c1.2,0,2.6-0.5,4.1-1.6c6.2-4.5,13.2-6.8,20.9-6.8c9.6,0,17.8,3.2,24.6,9.7
		C295.5,105,298.9,112.9,298.9,122.1"/>
	<path class="st1" d="M105.9,39.6c-12.5,4.5-38.5,14.6-51.6,29.7c-14.4,16.6-6.8,36.3,12,43.7c34.6,13.6,66.9-24.3,87.8-42.8
		c-18.2,5-36.5,10.1-54.7,15.1c38.6-2-19.6,38.2-41.3,15.5C33.4,75,82.4,49.4,105.9,39.6 M115,24.5c7.9,4.5,16.4,9.3,25.5,14.4
		c9.8,5.5,20.4,11.5,31.9,18c8.1,4.6,8.9,13.3,1.2,19.3c-12,9.4-24.2,19-36.9,29c-13,10.3-26.4,21-40.2,32.1
		c-9.4,7.5-22.4,7.1-28.4-0.6c-8.4-10.8-16.2-20.7-23.2-29.7C38.4,98.7,32.5,91,27,83.8c-3.4-4.5-0.1-11.9,7-16.7
		C44.7,60,55.2,53,65.4,46.3c10-6.6,19.8-13,29.5-19.4C101.1,22.8,110,21.8,115,24.5 M119.9,21.3c8,4.3,16.6,9,25.8,14
		c9.9,5.4,20.7,11.2,32.3,17.4c12,6.4,13.5,19.1,2.4,27.9c-12.1,9.6-24.6,19.6-37.4,29.9c-13.2,10.7-26.8,21.7-40.8,33.2
		c-13.7,11.2-32.9,10.4-41.4-1.1c-8.2-11.1-15.7-21.3-22.5-30.7c-6.3-8.6-12-16.6-17.3-23.9c-4.7-6.5,0.2-17.2,10.4-23.9
		c10.5-7,20.9-13.7,31-20.3c9.9-6.5,19.6-12.8,29.1-18.9C100.2,19,112.8,17.4,119.9,21.3"/>
	<defs>
		<filter id="Adobe_OpacityMaskFilter" filterUnits="userSpaceOnUse" x="19.1" y="19.1" width="168.8" height="78.6">
			<feColorMatrix  type="matrix" values="1 0 0 0 0  0 1 0 0 0  0 0 1 0 0  0 0 0 1 0"/>
		</filter>
	</defs>
	<mask maskUnits="userSpaceOnUse" x="19.1" y="19.1" width="168.8" height="78.6" id="SVGID_1_">
		<g class="st2">
			<g>
				<defs>
					<rect id="SVGID_2_" x="19.1" y="19.1" width="168.8" height="78.6"/>
				</defs>
				<clipPath id="SVGID_3_">
					<use xlink:href="#SVGID_2_"  style="overflow:visible;"/>
				</clipPath>
				<rect x="16.2" y="17.4" class="st3" width="171.7" height="80.3"/>
				<g class="st4">
					<g>
						<defs>
							<rect id="SVGID_4_" x="16.2" y="17.4" width="171.7" height="80.3"/>
						</defs>
						<clipPath id="SVGID_5_" class="st3">
							<use xlink:href="#SVGID_4_"  style="overflow:visible;"/>
						</clipPath>
						<g>
							<defs>
								<rect id="SVGID_6_" x="16.9" y="19.1" width="171" height="171.9"/>
							</defs>
							<clipPath id="SVGID_7_" class="st5">
								<use xlink:href="#SVGID_6_"  style="overflow:visible;"/>
							</clipPath>
							<g>
								<defs>
									<rect id="SVGID_8_" x="16.9" y="19.1" width="171" height="171.9"/>
								</defs>
								<clipPath id="SVGID_9_" class="st6">
									<use xlink:href="#SVGID_8_"  style="overflow:visible;"/>
								</clipPath>
								<g style="clip-path:url(#SVGID_9_);">
									
										<image style="overflow:visible;" width="256" height="1" xlink:href="9432B9F9.jpg"  transform="matrix(0 -0.6716 170.9969 -9.337227e-06 16.9242 191.085)">
									</image>
								</g>
							</g>
						</g>
					</g>
				</g>
			</g>
		</g>
	</mask>
	<g class="st7">
		<g>
			<defs>
				<rect id="SVGID_10_" x="19.1" y="19.1" width="168.8" height="78.6"/>
			</defs>
			<clipPath id="SVGID_11_">
				<use xlink:href="#SVGID_10_"  style="overflow:visible;"/>
			</clipPath>
			<path class="st8" d="M105.9,39.6c-12.5,4.5-38.5,14.6-51.6,29.7c-7.6,8.8-9.1,18.4-6,26.6c1.8-0.3,3.6-0.6,5.4-0.9
				C40.6,71.3,84.2,48.7,105.9,39.6 M119.9,21.3c8,4.3,16.6,9,25.8,14c9.9,5.4,20.7,11.2,32.3,17.4c6.1,3.3,9.4,8.1,9.9,13.3
				c-3.1,0-6.1,0-9,0.2c-0.2-3.5-2.5-6.8-6.5-9.1c-11.5-6.5-22.1-12.4-31.9-18c-9.1-5.1-17.6-10-25.5-14.4
				c-4.9-2.8-13.9-1.7-20.1,2.4c-9.6,6.3-19.4,12.7-29.5,19.4C55.2,53,44.7,60,34,67.1c-7.2,4.8-10.5,12.3-7,16.7
				c3.3,4.3,6.7,8.8,10.4,13.5c-3.1,0.3-6.2,0.4-9.3,0.5c-2.4-3.4-4.8-6.7-7.1-9.8c-4.7-6.5,0.2-17.2,10.4-23.9
				c10.5-7,20.9-13.7,31-20.3c9.9-6.5,19.6-12.8,29.1-18.9C100.2,19,112.8,17.4,119.9,21.3"/>
		</g>
	</g>
	<path class="st9" d="M423.2,144.1c0,1.1,0.1,1.7,0.4,2c0.3,0.2,0.7,0.4,1.4,0.4c0.2,0,0.5,0,0.7,0c0.2,0,0.5-0.1,0.9-0.2v1.6
		c-0.5,0.1-0.9,0.2-1.3,0.2c-0.4,0.1-0.8,0.1-1.1,0.1c-1,0-1.8-0.3-2.2-0.9c-0.4-0.6-0.7-1.5-0.7-2.9v-9.2h-2.5v-1.6h2.5v-4.2h2v4.2
		h3.4v1.6h-3.4V144.1z M402.4,147.9v-14.3h1.9v2.6c0.7-1,1.6-1.7,2.7-2.2c1.1-0.5,2.2-0.8,3.6-0.8c2,0,3.4,0.4,4.4,1.3
		c0.9,0.9,1.4,2.2,1.4,4.1v9.3h-1.9v-8.1c0-1.8-0.3-3.1-0.9-3.8c-0.6-0.7-1.7-1.1-3.2-1.1c-1.7,0-3.1,0.4-4.2,1.3
		c-1.1,0.9-1.6,2-1.6,3.4v8.2H402.4z M396.2,133.6h1.9v14.3h-1.9V133.6z M396.2,128.4h1.9v2.2h-1.9V128.4z M387.6,147.9h-2v-14.3h2
		v2.4c0.4-0.9,1-1.6,1.8-2.1c0.8-0.5,1.7-0.8,2.6-0.8c0.3,0,0.6,0,1,0.1c0.3,0.1,0.7,0.2,1,0.3v1.8c-0.3-0.1-0.6-0.2-0.9-0.2
		c-0.3,0-0.6-0.1-0.8-0.1c-1.2,0-2.1,0.3-2.9,0.9c-0.8,0.6-1.4,1.5-1.8,2.7V147.9z M366.6,153.1v-19.5h2v2.5c0.8-1,1.6-1.7,2.6-2.2
		c1-0.5,2.1-0.7,3.4-0.7c2.4,0,4.3,0.7,5.7,2.1c1.5,1.4,2.2,3.2,2.2,5.4c0,2.2-0.7,4.1-2.2,5.4c-1.5,1.4-3.4,2.1-5.7,2.1
		c-1.3,0-2.4-0.2-3.3-0.7c-1-0.5-1.8-1.2-2.6-2.1v7.6H366.6z M368.6,140.8c0,1.8,0.5,3.1,1.6,4.2c1.1,1,2.5,1.5,4.3,1.5
		c1.8,0,3.2-0.5,4.3-1.6c1.1-1,1.6-2.4,1.6-4.2c0-1.7-0.5-3.1-1.6-4.2c-1.1-1-2.5-1.6-4.3-1.6c-1.8,0-3.2,0.5-4.3,1.6
		C369.1,137.6,368.6,139,368.6,140.8"/>
</g>
</svg>
