<?xml version="1.0" encoding="utf-8"?>
<!-- Generator: Adobe Illustrator 24.0.0, SVG Export Plug-In . SVG Version: 6.00 Build 0)  -->
<svg version="1.1" id="Layer_1" xmlns="http://www.w3.org/2000/svg" xmlns:xlink="http://www.w3.org/1999/xlink" x="0px" y="0px"
	 viewBox="0 0 50 32" style="enable-background:new 0 0 50 32;" xml:space="preserve">
<style type="text/css">
	.st0{fill:#FFFFFF;}
</style>
<g>
	<path class="st0" d="M47.3,6.1H1.7C1.3,6.1,1,5.8,1,5.4V2.7C1,2.3,1.3,2,1.7,2h45.6C47.7,2,48,2.3,48,2.7v2.7
		C48,5.8,47.7,6.1,47.3,6.1z"/>
</g>
<g>
	<path class="st0" d="M34.3,18.6H1.7c-0.4,0-0.7-0.3-0.7-0.7v-2.7c0-0.4,0.3-0.7,0.7-0.7h32.6c0.4,0,0.7,0.3,0.7,0.7v2.7
		C35,18.3,34.7,18.6,34.3,18.6z"/>
</g>
<g>
	<path class="st0" d="M9.3,31H1.7C1.3,31,1,30.7,1,30.3v-2.7c0-0.4,0.3-0.7,0.7-0.7h7.6c0.4,0,0.7,0.3,0.7,0.7v2.7
		C10,30.7,9.7,31,9.3,31z"/>
</g>
<g>
	<path class="st0" d="M16.3,31h-2.6c-0.4,0-0.7-0.3-0.7-0.7v-2.7c0-0.4,0.3-0.7,0.7-0.7h2.6c0.4,0,0.7,0.3,0.7,0.7v2.7
		C17,30.7,16.7,31,16.3,31z"/>
</g>
</svg>
