<svg xmlns="http://www.w3.org/2000/svg" xmlns:xlink="http://www.w3.org/1999/xlink" width="66" height="66" viewBox="0 0 66 66"><defs><style>.a{fill:#fff;stroke:#707070;}.b{clip-path:url(#a);}.c{fill:#313a49;stroke:#313a49;fill-rule:evenodd;}</style><clipPath id="a"><rect class="a" width="66" height="66" transform="translate(698 2561)"/></clipPath></defs><g class="b" transform="translate(-698 -2561)"><g transform="translate(694.801 2558.258)"><g transform="translate(7.333 12.222)"><path class="c" d="M35.13,35.742,28.074,42.8l-1.5-1.711L36.2,31.466l9.622,9.622L44.11,42.8l-6.842-7.056v23.52H35.13V35.742ZM32.992,46.433H18.024A8.578,8.578,0,0,1,9.472,37.88,8.491,8.491,0,0,1,16.1,29.541h0a8.771,8.771,0,0,1-.214-2.352A12.867,12.867,0,0,1,28.715,14.36,13.233,13.233,0,0,1,40.9,22.913a10.218,10.218,0,0,1,5.987-2.138,9.576,9.576,0,0,1,9.622,8.767h0a8.585,8.585,0,0,1-2.138,16.892H39.406v2.138H54.373a10.659,10.659,0,0,0,4.063-20.527h0A11.9,11.9,0,0,0,46.89,18.637a10.158,10.158,0,0,0-5.132,1.283,14.942,14.942,0,0,0-28.01,7.27v.855h0a10.713,10.713,0,0,0,4.276,20.527H32.992V46.433Z" transform="translate(-7.333 -12.222)"/></g></g></g></svg>