<?xml version="1.0" encoding="utf-8"?>
<!-- Generator: Adobe Illustrator 24.0.1, SVG Export Plug-In . SVG Version: 6.00 Build 0)  -->
<svg version="1.1" id="Layer_1" xmlns="http://www.w3.org/2000/svg" xmlns:xlink="http://www.w3.org/1999/xlink" x="0px" y="0px"
	 viewBox="0 0 300 300" style="enable-background:new 0 0 300 300;" xml:space="preserve">
<style type="text/css">
	.st0{display:none;fill:#EC1C24;stroke:#000000;stroke-miterlimit:10;}
	.st1{fill:#FFFFFF;}
	.st2{fill:none;stroke:#FFFFFF;stroke-width:5.6693;stroke-linecap:round;stroke-linejoin:round;}
	.st3{fill:none;stroke:#FFFFFF;stroke-width:5.6693;stroke-linecap:square;stroke-linejoin:round;}
</style>
<rect x="-5.4" y="-5.4" class="st0" width="1592.9" height="1269.3"/>
<g>
	<path class="st1" d="M256.9,84.9l-0.1,130.8h-213v23c0,2.6,2.1,4.8,4.8,4.8h231.6c2.6,0,4.8-2.1,4.8-4.8v-149
		c0-2.6-2.1-4.8-4.8-4.8H256.9z M273.1,228.1c0,1.6-1.3,2.8-2.8,2.8H97.1c-1.6,0-2.8-1.3-2.8-2.8s1.3-2.8,2.8-2.8h170.4v-89.9
		c0-1.6,1.3-2.8,2.8-2.8s2.8,1.3,2.8,2.8V228.1z"/>
	<rect x="14.9" y="56.5" class="st2" width="241.2" height="158.7"/>
	<line class="st3" x1="116.4" y1="133" x2="214" y2="133"/>
	<line class="st3" x1="61.4" y1="171" x2="214" y2="171"/>
	<circle class="st2" cx="66.9" cy="108.5" r="31"/>
</g>
</svg>
